<?xml version="1.0" standalone="no"?>
<!DOCTYPE svg PUBLIC "-//W3C//DTD SVG 20010904//EN"
 "http://www.w3.org/TR/2001/REC-SVG-20010904/DTD/svg10.dtd">
<svg version="1.0" xmlns="http://www.w3.org/2000/svg"
 width="512.000000pt" height="512.000000pt" viewBox="0 0 512.000000 512.000000"
 preserveAspectRatio="xMidYMid meet">
<metadata>
Created by potrace 1.14, written by Peter Selinger 2001-2017
</metadata>
<g transform="translate(0.000000,512.000000) scale(0.100000,-0.100000)"
fill="#000000" stroke="none">
<path d="M4019 4570 c-213 -42 -391 -79 -397 -81 -7 -2 72 -112 174 -244 102
-132 198 -256 212 -275 89 -116 185 -235 191 -233 3 0 20 3 36 6 54 8 299 58
338 68 37 10 38 11 32 46 -3 19 -7 38 -9 42 -2 3 -7 24 -10 46 -6 34 -28 145
-42 210 -3 11 -7 38 -10 60 -3 22 -9 54 -14 70 -4 17 -23 105 -41 198 -29 153
-34 167 -53 166 -12 0 -195 -36 -407 -79z"/>
<path d="M2968 4365 c-3 -3 -18 -8 -34 -11 -77 -14 -341 -66 -356 -70 -14 -4
13 -43 125 -187 79 -100 207 -265 286 -367 79 -102 147 -189 151 -193 6 -7 77
3 190 28 14 3 39 8 55 11 72 12 168 34 172 38 3 2 -2 12 -11 23 -8 10 -83 106
-166 213 -83 107 -156 202 -163 210 -7 8 -59 76 -116 150 -121 158 -125 162
-133 155z"/>
<path d="M1909 4156 c-2 -2 -20 -7 -39 -10 -19 -3 -84 -16 -145 -30 -114 -25
-171 -36 -192 -38 -7 -1 -13 -4 -13 -7 0 -3 104 -139 231 -301 127 -162 255
-328 285 -367 31 -40 59 -75 64 -78 4 -3 52 4 105 15 54 11 107 22 119 24 11
2 60 12 108 21 l88 18 -63 81 c-35 44 -101 131 -147 191 -46 61 -87 112 -90
115 -3 3 -25 32 -50 65 -25 33 -49 65 -55 71 -5 6 -48 62 -95 123 -75 99 -97
120 -111 107z"/>
<path d="M754 3921 c-73 -15 -154 -38 -185 -54 -124 -61 -219 -200 -232 -339
-5 -65 1 -107 55 -363 l32 -150 2 -1110 c1 -1017 2 -1115 18 -1169 41 -140
148 -247 291 -291 57 -18 135 -18 1810 -18 963 0 1768 3 1791 6 122 18 234 97
301 212 28 47 37 73 50 135 3 14 6 515 6 1115 l1 1090 -2117 0 c-1164 0 -2113
3 -2109 6 6 5 62 17 207 45 11 2 31 6 45 9 14 2 36 7 50 9 20 4 402 79 460 91
8 2 65 13 127 25 121 24 122 25 76 75 -10 11 -45 56 -78 100 -33 44 -63 82
-66 85 -6 6 -232 296 -264 339 -23 32 -126 163 -134 172 -3 3 -65 -6 -137 -20z
m3512 -2213 l-1 -853 -1705 0 -1705 0 -1 845 c-1 465 1 848 3 853 2 4 770 7
1707 7 l1703 0 -1 -852z"/>
</g>
</svg>
